# xmcd
#
# Track frame offsets:
#	150
#	12407
#	26505
#	41635
#	54010
#	71747
#	86677
#	101077
#	113927
#	126590
#	139867
#	154362
#	169467
#	193222
#
# Disc length: 2757
#
# Revision: 1
# Processed by: cddbd v1.5.1PL0 Copyright (c) Steve Scherf et al.
# Submitted via: VisiTrax 2.9.3.171 - For more info visit www.synapsa.com
# Normalized: r0:DSETVAR1
#
DISCID=ce0ac30e
DTITLE=Various Artist - Mr Music Country 6-00
DYEAR=1900
DGENRE=
TTITLE0=Paul Craft - Brother Jukebox
TTITLE1=Keith Urban - I Wanna Be Your Man (Forever)
TTITLE2=Steve Wariner - pty House
TTITLE3=Patty Booker with Jann Browne - I Don't Need All That
TTITLE4=Chris LeDoux - The Borderline
TTITLE5=Billy Dean - A Fall In Tennessee
TTITLE6=Charlie Shearer - I Just Destroyed The World
TTITLE7=River Road - Nickajack
TTITLE8=Red Jenkins - She's Not Hurting Me Tonight
TTITLE9=Mike Bella - Big In Vegas
TTITLE10=Trace Adkins - A Working Man's Wage
TTITLE11=John Anderson - Who's Lovin' My Baby
TTITLE12=Hank Wilson - In The Jailhouse Now
TTITLE13=Tanya Tucker - Trail Of Tears
EXTD=
EXTT0=
EXTT1=
EXTT2=
EXTT3=
EXTT4=
EXTT5=
EXTT6=
EXTT7=
EXTT8=
EXTT9=
EXTT10=
EXTT11=
EXTT12=
EXTT13=
PLAYORDER=
